<?xml version="1.0" standalone="no"?><!DOCTYPE svg PUBLIC "-//W3C//DTD SVG 1.1//EN" "http://www.w3.org/Graphics/SVG/1.1/DTD/svg11.dtd"><svg t="1770618782795" class="icon" viewBox="0 0 1034 1024" version="1.1" xmlns="http://www.w3.org/2000/svg" p-id="6650" xmlns:xlink="http://www.w3.org/1999/xlink" width="201.953125" height="200"><path d="M967.37 85.601H812.618V0h-77.231v85.601H297.35V0H220.12v85.601H67.577C30.313 85.601 0 115.924 0 153.18v803.244C0 993.677 30.313 1024 67.577 1024H967.37c37.255 0 67.578-30.323 67.578-67.577V153.179c0-37.255-30.323-67.578-67.578-67.578z m9.654 870.822a9.654 9.654 0 0 1-9.654 9.654H67.577c-5.319 0-9.654-4.325-9.654-9.654V411.266h919.014v-57.923H57.923V153.179c0-5.33 4.335-9.654 9.654-9.654H220.12v73.746h77.231v-73.746h438.037v73.746h77.231v-73.746H967.37a9.654 9.654 0 0 1 9.654 9.654v803.244z" fill="#495057" p-id="6651"></path><path d="M203.437 568.963a56.398 56.398 0 1 0 112.796 0 56.398 56.398 0 1 0-112.796 0zM461.08 568.963a56.398 56.398 0 1 0 112.797 0 56.398 56.398 0 1 0-112.797 0zM718.714 568.963a56.398 56.398 0 1 0 112.797 0 56.398 56.398 0 1 0-112.797 0zM203.437 783.473a56.398 56.398 0 1 0 112.796 0 56.398 56.398 0 1 0-112.796 0zM461.08 783.473a56.398 56.398 0 1 0 112.797 0 56.398 56.398 0 1 0-112.797 0zM718.714 783.473a56.398 56.398 0 1 0 112.797 0 56.398 56.398 0 1 0-112.797 0z" fill="#495057" p-id="6652"></path></svg>