<?xml version="1.0" standalone="no"?><!DOCTYPE svg PUBLIC "-//W3C//DTD SVG 1.1//EN" "http://www.w3.org/Graphics/SVG/1.1/DTD/svg11.dtd"><svg t="1770665569348" class="icon" viewBox="0 0 1024 1024" version="1.1" xmlns="http://www.w3.org/2000/svg" p-id="24133" xmlns:xlink="http://www.w3.org/1999/xlink" width="200" height="200"><path d="M999.05 198.574L825.433 24.968a85.319 85.319 0 0 0-120.616 0l-671.07 671.08c-0.317 0.317-0.42 0.747-0.716 1.085a28.242 28.242 0 0 0-5.243 7.895c-0.082 0.184-0.225 0.348-0.307 0.543a28.313 28.313 0 0 0-1.946 8.007L0.12 992.994A28.446 28.446 0 0 0 28.443 1024c0.86 0 1.71 0 2.57-0.113l279.426-25.405a28.364 28.364 0 0 0 8.018-1.945c0.194-0.082 0.369-0.236 0.563-0.318a28.221 28.221 0 0 0 7.875-5.232c0.327-0.297 0.757-0.4 1.085-0.717l533.395-533.395 0.082-0.051s0-0.062 0.05-0.082L999.05 319.2a85.39 85.39 0 0 0 0-120.626z m-411.745 24.31l213.829 213.829-493.265 493.265-213.83-213.83zM59.839 964.179l16.824-185.014 168.19 168.19z m899.01-685.18L841.345 396.5l-213.84-213.819L745.02 65.17a28.405 28.405 0 0 1 40.212 0l173.617 173.597a28.498 28.498 0 0 1 0 40.232z" fill="#6b7280" p-id="24134"></path><path d="M333.274 719.17a28.334 28.334 0 0 0 20.1-8.326l254.042-254.03a28.427 28.427 0 1 0-40.202-40.202l-254.04 254.03a28.426 28.426 0 0 0 20.1 48.527z" fill="#6b7280" p-id="24135"></path></svg>
